<svg width="109" height="53" viewBox="0 0 109 53" fill="none" xmlns="http://www.w3.org/2000/svg">
<g clip-path="url(#clip0)">
<circle cx="23.8764" cy="24.1671" r="18.8764" fill="#FFE600"/>
<path d="M32.4688 34.8948C30.215 34.8948 28.4804 34.4137 27.2649 33.4514C26.0747 32.4638 25.2897 30.8811 24.9098 28.7033L29.392 28.0576C29.5693 29.1718 29.9111 29.9948 30.4176 30.5266C30.924 31.0584 31.6204 31.3243 32.5067 31.3243C33.4184 31.3243 34.1021 31.033 34.5579 30.4506C35.0391 29.8429 35.2796 28.9692 35.2796 27.8297V16.4723H30.9494V12.9017H39.7998V27.7157C39.7998 29.9695 39.1541 31.7294 37.8626 32.9956C36.5711 34.2617 34.7732 34.8948 32.4688 34.8948ZM50.9369 34.8948C48.4299 34.8948 46.5054 34.1604 45.1633 32.6917C43.8211 31.1976 43.1501 29.0325 43.1501 26.1963C43.1501 23.4361 43.8338 21.3216 45.2013 19.8529C46.5687 18.3588 48.5059 17.6118 51.0129 17.6118C53.3933 17.6118 55.2165 18.4095 56.4827 20.0048C57.7488 21.6002 58.3819 23.9173 58.3819 26.956V27.108H47.7082C47.7082 28.7286 47.9995 29.9568 48.5819 30.7925C49.1896 31.6028 50.0506 32.008 51.1648 32.008C52.6842 32.008 53.6465 31.3496 54.0517 30.0328L58.154 30.3746C56.9638 33.3881 54.5581 34.8948 50.9369 34.8948ZM50.9369 20.3467C49.924 20.3467 49.139 20.7012 48.5819 21.4103C48.0501 22.1193 47.7715 23.1069 47.7462 24.3731H54.2036C54.1276 23.031 53.7984 22.0307 53.216 21.3723C52.6589 20.6886 51.8992 20.3467 50.9369 20.3467ZM67.5059 34.8948C65.2521 34.8948 63.5175 34.4137 62.302 33.4514C61.1118 32.4638 60.3268 30.8811 59.9469 28.7033L64.4291 28.0576C64.6064 29.1718 64.9482 29.9948 65.4547 30.5266C65.9612 31.0584 66.6575 31.3243 67.5439 31.3243C68.4555 31.3243 69.1392 31.033 69.595 30.4506C70.0762 29.8429 70.3167 28.9692 70.3167 27.8297V16.4723H65.9865V12.9017H74.8369V27.7157C74.8369 29.9695 74.1912 31.7294 72.8997 32.9956C71.6082 34.2617 69.8103 34.8948 67.5059 34.8948ZM83.0112 34.8948C81.3906 34.8948 80.1244 34.4643 79.2128 33.6033C78.3265 32.717 77.8833 31.4762 77.8833 29.8808C77.8833 28.1589 78.4404 26.8547 79.5546 25.9684C80.6942 25.0568 82.3275 24.5883 84.4547 24.563L88.0632 24.487V23.6514C88.0632 22.5625 87.8733 21.7521 87.4934 21.2204C87.1136 20.6886 86.4932 20.4227 85.6322 20.4227C84.8218 20.4227 84.2268 20.6126 83.8469 20.9924C83.4924 21.347 83.2645 21.9421 83.1632 22.7777L78.643 22.5498C78.9216 20.9291 79.6559 19.701 80.8461 18.8653C82.0616 18.0296 83.7203 17.6118 85.8221 17.6118C87.9239 17.6118 89.5446 18.1309 90.6841 19.1692C91.8237 20.2074 92.3934 21.6888 92.3934 23.6134V29.6529C92.3934 30.5899 92.4947 31.2356 92.6973 31.5902C92.8999 31.9447 93.2544 32.1219 93.7609 32.1219C94.0901 32.1219 94.4066 32.0966 94.7105 32.046V34.363C94.4573 34.4137 94.2294 34.477 94.0268 34.553C93.8242 34.6036 93.609 34.6416 93.381 34.6669C93.1785 34.6922 92.9632 34.7176 92.7353 34.7429C92.5074 34.7682 92.2415 34.7809 91.9376 34.7809C90.8487 34.7809 90.0384 34.515 89.5066 33.9832C89.0002 33.4514 88.6963 32.6664 88.595 31.6281H88.519C87.2782 33.8059 85.4423 34.8948 83.0112 34.8948ZM88.0632 26.8801L85.8221 26.918C84.8092 26.9687 84.0875 27.0826 83.657 27.2599C83.2518 27.4372 82.9353 27.7157 82.7074 28.0956C82.5048 28.4501 82.4035 28.9312 82.4035 29.539C82.4035 30.324 82.5808 30.9191 82.9353 31.3243C83.3151 31.7041 83.8089 31.894 84.4167 31.894C85.1004 31.894 85.7208 31.7041 86.2779 31.3243C86.835 30.9444 87.2655 30.438 87.5694 29.8049C87.8986 29.1465 88.0632 28.4501 88.0632 27.7157V26.8801Z" fill="#3A3A3A"/>
</g>
<defs>
<clipPath id="clip0">
<rect width="109" height="53" fill="white"/>
</clipPath>
</defs>
</svg>
